<svg width="16" height="17" viewBox="0 0 16 17" fill="none" xmlns="http://www.w3.org/2000/svg">
<path fill-rule="evenodd" clip-rule="evenodd" d="M8 14.968C3.582 14.968 0 10.282 0 8.96802C0 7.65402 3.582 2.96802 8 2.96802C12.418 2.96802 16 7.65402 16 8.96802C16 10.282 12.418 14.968 8 14.968ZM8 12.968C9.06087 12.968 10.0783 12.5466 10.8284 11.7964C11.5786 11.0463 12 10.0289 12 8.96802C12 7.90715 11.5786 6.88974 10.8284 6.13959C10.0783 5.38944 9.06087 4.96802 8 4.96802C6.93913 4.96802 5.92172 5.38944 5.17157 6.13959C4.42143 6.88974 4 7.90715 4 8.96802C4 10.0289 4.42143 11.0463 5.17157 11.7964C5.92172 12.5466 6.93913 12.968 8 12.968ZM8 10.968C7.46957 10.968 6.96086 10.7573 6.58579 10.3822C6.21071 10.0072 6 9.49845 6 8.96802C6 8.43758 6.21071 7.92888 6.58579 7.5538C6.96086 7.17873 7.46957 6.96802 8 6.96802C8.53043 6.96802 9.03914 7.17873 9.41421 7.5538C9.78929 7.92888 10 8.43758 10 8.96802C10 9.49845 9.78929 10.0072 9.41421 10.3822C9.03914 10.7573 8.53043 10.968 8 10.968Z" fill="#A3ACB9"/>
</svg>
