<svg width="12" height="12" viewBox="0 0 12 12" fill="none" xmlns="http://www.w3.org/2000/svg">
<path fill-rule="evenodd" clip-rule="evenodd" d="M1.5 7.5C1.10218 7.5 0.720644 7.34196 0.43934 7.06066C0.158035 6.77936 0 6.39782 0 6C0 5.60218 0.158035 5.22064 0.43934 4.93934C0.720644 4.65804 1.10218 4.5 1.5 4.5C1.89782 4.5 2.27936 4.65804 2.56066 4.93934C2.84196 5.22064 3 5.60218 3 6C3 6.39782 2.84196 6.77936 2.56066 7.06066C2.27936 7.34196 1.89782 7.5 1.5 7.5ZM6 7.5C5.60218 7.5 5.22064 7.34196 4.93934 7.06066C4.65804 6.77936 4.5 6.39782 4.5 6C4.5 5.60218 4.65804 5.22064 4.93934 4.93934C5.22064 4.65804 5.60218 4.5 6 4.5C6.39782 4.5 6.77936 4.65804 7.06066 4.93934C7.34196 5.22064 7.5 5.60218 7.5 6C7.5 6.39782 7.34196 6.77936 7.06066 7.06066C6.77936 7.34196 6.39782 7.5 6 7.5ZM10.5 7.5C10.1022 7.5 9.72064 7.34196 9.43934 7.06066C9.15804 6.77936 9 6.39782 9 6C9 5.60218 9.15804 5.22064 9.43934 4.93934C9.72064 4.65804 10.1022 4.5 10.5 4.5C10.8978 4.5 11.2794 4.65804 11.5607 4.93934C11.842 5.22064 12 5.60218 12 6C12 6.39782 11.842 6.77936 11.5607 7.06066C11.2794 7.34196 10.8978 7.5 10.5 7.5Z" fill="#4F566B"/>
</svg>
